<svg width="25" height="25" viewBox="0 0 25 25" fill="none" xmlns="http://www.w3.org/2000/svg">
<path d="M21.4286 0H3.57143C1.59766 0 0 1.59766 0 3.57143V21.4286C0 23.4029 1.5971 25 3.57143 25H21.4286C23.4029 25 25 23.4029 25 21.4286V3.57143C25 1.59766 23.404 0 21.4286 0ZM21.4286 16.9643C21.4286 17.9503 20.6289 18.75 19.6429 18.75H5.35714C4.37109 18.75 3.57143 17.9503 3.57143 16.9643V10.8203L11.3002 14.6858C11.6797 14.8717 12.0871 14.9665 12.5 14.9665C12.9129 14.9665 13.3231 14.8723 13.6981 14.6849L21.4286 10.8203V16.9643ZM21.4286 8.82255L12.9018 13.0871C12.6507 13.2126 12.3542 13.2126 12.1032 13.0871L3.57143 8.82255V8.03571C3.57143 7.04966 4.37109 6.25 5.35714 6.25H19.6429C20.6289 6.25 21.4286 7.04966 21.4286 8.03571V8.82255Z" fill="#B2784A"/>
</svg>
