<svg width="25" height="25" viewBox="0 0 25 25" fill="none" xmlns="http://www.w3.org/2000/svg">
<path d="M21.4286 0H3.57143C1.59877 0 0 1.59877 0 3.57143V21.4286C0 23.4012 1.59877 25 3.57143 25H21.4286C23.4012 25 25 23.4012 25 21.4286V3.57143C25 1.59877 23.3984 0 21.4286 0ZM19.6205 16.1551L18.9721 18.9671C18.881 19.3647 18.5312 19.6429 18.1217 19.6429C11.0848 19.6429 5.35938 13.9174 5.35938 6.875C5.35938 6.46607 5.6375 6.11663 6.03516 6.02567L8.84654 5.37667C9.25636 5.28164 9.6769 5.49436 9.8471 5.88237L11.1456 8.91138C11.2974 9.26802 11.1949 9.68315 10.895 9.92813L9.39174 11.1607C10.3398 13.0921 11.9107 14.6624 13.8432 15.611L15.072 14.1094C15.3144 13.8085 15.7333 13.7048 16.0898 13.8592L19.1166 15.1566C19.5033 15.3237 19.7154 15.7478 19.6205 16.1551Z" fill="#B2784A"/>
</svg>
